# xmcd
#
# Track frame offsets:
#	150
#	13753
#	28237
#	43885
#	60367
#	76065
#	89075
#	103749
#	119127
#	135142
#	149307
#	163601
#	177964
#	193230
#
# Disc length: 2992 seconds
#
# Revision: 1
# Processed by: cddbd v1.5.1PL0 Copyright (c) Steve Scherf et al.
# Submitted via: audiograbber 1.83.01
#
DISCID=c30bae0e
DTITLE=CLÁUDIO RIOS - EU VOU PRA VAQUEJADA
DYEAR=1900
DGENRE=Forró
TTITLE0=Eu Vou Pra Vaqujada
TTITLE1=Que Nem Chclete
TTITLE2=Eu e Você
TTITLE3=Cartas Marcadas
TTITLE4=O Boi, o Cavalo e o Vaqueiro
TTITLE5=Bom Vaqueiro
TTITLE6=Sou Vaqueiro Puxador
TTITLE7=Aprendi a Amar
TTITLE8=Dois Amantes
TTITLE9=Me Tira Dessa Coração
TTITLE10=Nordestino Desgarrado
TTITLE11=Chave do Destino
TTITLE12=Sem Limote
TTITLE13=A Pega do Boi Bravo
EXTD=
EXTT0=
EXTT1=
EXTT2=
EXTT3=
EXTT4=
EXTT5=
EXTT6=
EXTT7=
EXTT8=
EXTT9=
EXTT10=
EXTT11=
EXTT12=
EXTT13=
PLAYORDER=
